<svg height="512pt" viewBox="-15 0 512 512" width="512pt" xmlns="http://www.w3.org/2000/svg"><path d="m200.851562 260.691406h-152.738281c-17.738281 0-32.117187-14.378906-32.117187-32.117187v-101.949219h216.972656v101.949219c0 17.738281-14.378906 32.117187-32.117188 32.117187zm0 0" fill="#5f6c75"/><path d="m192.96875 126.621094v73.519531c0 22.394531-18.15625 40.550781-40.550781 40.550781h-134.050781c4.785156 11.730469 16.296874 20 29.746093 20h152.734375c17.738282 0 32.121094-14.378906 32.121094-32.117187v-101.953125zm0 0" fill="#4e5a61"/><path d="m149.1875 379.441406h-49.410156c-4.140625 0-7.5-3.359375-7.5-7.5v-64.441406h64.410156v64.441406c0 4.140625-3.359375 7.5-7.5 7.5zm0 0" fill="#5f6c75"/><path d="m126.6875 307.5v26.695312c0 13.941407-11.304688 25.246094-25.246094 25.246094h-9.164062v12.5c0 4.140625 3.359375 7.5 7.5 7.5h49.410156c4.140625 0 7.5-3.359375 7.5-7.5v-64.441406zm0 0" fill="#4e5a61"/><path d="m286.519531 104.742188v287.515624c0 38.996094-31.613281 70.609376-70.609375 70.609376-38.890625 0-70.613281-31.503907-70.613281-70.609376v-12.816406h-41.628906v12.816406c0 61.988282 50.25 112.242188 112.242187 112.242188 61.816406 0 112.242188-50.082031 112.242188-112.242188v-287.515624c0-30.714844 24.898437-55.609376 55.609375-55.609376 30.628906 0 55.609375 24.8125 55.609375 55.609376v401.683593c0 3.078125 2.496094 5.574219 5.574218 5.574219h30.484376c3.078124 0 5.574218-2.496094 5.574218-5.574219v-401.683593c0-53.707032-43.535156-97.242188-97.242187-97.242188-53.554688 0-97.242188 43.390625-97.242188 97.242188zm0 0" fill="#8f9bae"/><path d="m393.460938 7.980469c20.335937 15.835937 34.210937 39.578125 37.015624 66.609375 5.621094 8.6875 8.898438 19.035156 8.898438 30.152344v401.683593c0 3.078125 2.492188 5.574219 5.570312 5.574219h30.488282c3.078125 0 5.570312-2.496094 5.570312-5.574219v-401.683593c0-50.433594-38.394531-91.894532-87.542968-96.761719zm0 0" fill="#7e8b96"/><path d="m172.785156 307.5h-96.605468c-8.929688 0-16.761719-5.957031-19.144532-14.5625l-8.921875-32.246094h152.734375l-8.921875 32.246094c-2.378906 8.605469-10.210937 14.5625-19.140625 14.5625zm0 0" fill="#5f6c75"/><path d="m155.316406 260.691406-3.390625 12.246094c-2.382812 8.605469-10.210937 14.5625-19.140625 14.5625h-77.253906l1.507812 5.4375c2.382813 8.605469 10.210938 14.5625 19.140626 14.5625h96.605468c8.929688 0 16.761719-5.957031 19.140625-14.5625l8.925781-32.246094zm0 0" fill="#4e5a61"/><path d="m234.207031 126.621094h-219.449219c-8.152343 0-14.757812-6.605469-14.757812-14.753906v-2.421876c0-8.152343 6.605469-14.757812 14.757812-14.757812h219.449219c8.152344 0 14.757813 6.605469 14.757813 14.757812v2.421876c0 8.148437-6.605469 14.753906-14.757813 14.753906zm0 0" fill="#5f6c75"/><path d="m234.207031 94.6875h-25.242187v2.179688c0 8.148437-6.609375 14.753906-14.757813 14.753906h-194.207031c0 8.773437 6.894531 15 14.757812 15h219.449219c8.148438 0 14.757813-6.605469 14.757813-14.753906v-2.421876c0-8.152343-6.605469-14.757812-14.757813-14.757812zm0 0" fill="#4e5a61"/><path d="m78.722656 94.6875h-30.609375v-86.363281c0-4.597657 3.726563-8.324219 8.324219-8.324219h13.960938c4.597656 0 8.324218 3.726562 8.324218 8.324219zm0 0" fill="#dadee4"/><path d="m170.242188 94.6875h30.609374v-86.363281c0-4.597657-3.726562-8.324219-8.324218-8.324219h-13.960938c-4.597656 0-8.324218 3.726562-8.324218 8.324219zm0 0" fill="#dadee4"/><path d="m119.019531 199.296875-9.855469 27.597656c-1.417968 3.972657 1.527344 8.15625 5.746094 8.15625 2.070313 0 4.019532-1.054687 5.148438-2.824219l30.453125-47.835937c1.441406-2.261719-.183594-5.222656-2.863281-5.222656h-11.929688c-2.347656 0-3.988281-2.324219-3.199219-4.539063l9.9375-27.824218c.789063-2.210938-.847656-4.539063-3.199219-4.539063h-20.414062c-1.433594 0-2.714844.902344-3.199219 2.253906l-17.53125 49.089844c-.789062 2.210937.851563 4.539063 3.199219 4.539063h16.898438c.59375-.003907 1.011718.585937.808593 1.148437zm0 0" fill="#f7b735"/><path d="m92.277344 323.285156h14.183594c4.140624 0 7.5 3.359375 7.5 7.5 0 4.144532-3.359376 7.5-7.5 7.5h-14.183594zm42.726562 7.5c0 4.144532 3.359375 7.5 7.5 7.5h14.183594v-15h-14.183594c-4.140625 0-7.5 3.359375-7.5 7.5zm-21.042968 25.367188c0-4.140625-3.359376-7.5-7.5-7.5h-14.183594v15h14.183594c4.140624 0 7.5-3.355469 7.5-7.5zm42.726562-7.5h-14.183594c-4.140625 0-7.5 3.359375-7.5 7.5 0 4.144531 3.359375 7.5 7.5 7.5h14.183594zm0 0" fill="#4e5a61"/><g fill="#3f4a4a"><path d="m135.003906 330.785156c0 4.144532 3.359375 7.5 7.5 7.5h14.183594v-15h-14.183594c-4.140625 0-7.5 3.359375-7.5 7.5zm0 0"/><path d="m113.957031 356.117188c-3.6875 2.109374-7.960937 3.324218-12.515625 3.324218h-9.164062v4.210938h14.183594c4.101562 0 7.515624-3.324219 7.496093-7.535156zm0 0"/><path d="m135.003906 356.152344c0 4.144531 3.359375 7.5 7.5 7.5h14.183594v-15h-14.183594c-4.140625 0-7.5 3.359375-7.5 7.5zm0 0"/></g></svg>