<svg height="512pt" viewBox="0 0 512.00045 512" width="512pt" xmlns="http://www.w3.org/2000/svg"><path d="m432.355469 392.273438c-30.992188 0-56.113281-25.121094-56.113281-56.113282v-56.113281h112.226562v56.113281c0 30.992188-25.125 56.113282-56.113281 56.113282zm0 0" fill="#dbd9dc"/><path d="m167.152344 239.296875c4.246094-36.035156-11.777344-79.226563-45.769532-113.21875-33.988281-33.988281-77.179687-50.011719-113.214843-45.765625-4.246094 36.035156 11.777343 79.226562 45.765625 113.21875 33.992187 33.988281 77.179687 50.011719 113.21875 45.765625zm0 0" fill="#96d7a5"/><path d="m248.652344 167.152344c36.035156 4.246094 79.226562-11.777344 113.214844-45.765625 31.882812-31.886719 47.960937-71.863281 46.324218-106.4375-.183594-3.921875-3.417968-7.152344-7.335937-7.335938-34.574219-1.636719-74.554688 14.4375-106.4375 46.320313-33.988281 33.992187-50.011719 77.183594-45.765625 113.21875zm0 0" fill="#96d7a5"/><path d="m376.242188 280.046875h112.226562v24.050781h-112.226562zm0 0" fill="#c9c6ca"/><path d="m100.292969 162.503906c-2.9375-2.921875-7.6875-2.90625-10.605469.03125-2.921875 2.9375-2.90625 7.683594.03125 10.605469l40.738281 40.496094c1.460938 1.457031 3.375 2.183593 5.289063 2.183593 1.925781 0 3.851562-.738281 5.316406-2.214843 2.921875-2.9375 2.90625-7.6875-.03125-10.605469zm0 0"/><path d="m504.5 272.546875h-24.566406v-72.660156c0-4.140625-3.355469-7.5-7.5-7.5-4.140625 0-7.5 3.359375-7.5 7.5v72.660156h-65.160156v-72.660156c0-4.140625-3.359376-7.5-7.5-7.5-4.140626 0-7.5 3.359375-7.5 7.5v72.660156h-24.566407c-4.140625 0-7.5 3.359375-7.5 7.5 0 4.144531 3.359375 7.5 7.5 7.5h8.535157v8.535156c0 4.140625 3.355468 7.5 7.5 7.5 4.140624 0 7.5-3.359375 7.5-7.5v-8.535156h97.226562v48.613281c0 26.804688-21.808594 48.613282-48.613281 48.613282-26.808594 0-48.613281-21.808594-48.613281-48.613282v-8.011718c0-4.144532-3.359376-7.5-7.5-7.5-4.144532 0-7.5 3.355468-7.5 7.5v8.011718c0 32.457032 24.433593 59.292969 55.871093 63.125-3.621093 54.492188-49.097656 97.714844-104.484375 97.714844-57.746094 0-104.726562-46.980469-104.726562-104.726562v-151.167969c0-19.410157 7.554687-37.65625 21.28125-51.378907l14.765625-14.769531c2.894531.238281 5.824219.359375 8.785156.359375 15.703125 0 32.257813-3.300781 48.550781-9.734375 21.082032-8.328125 41.269532-21.777343 58.386719-38.894531s30.566406-37.308594 38.894531-58.390625c8.167969-20.671875 11.285156-41.765625 9.015625-61.007813-.402343-3.445312-3.121093-6.164062-6.566406-6.570312-19.238281-2.265625-40.335937.851562-61.011719 9.019531-21.082031 8.328125-41.273437 21.777344-58.386718 38.890625-17.117188 17.117188-30.566407 37.308594-38.894532 58.390625-7.652344 19.367188-10.871094 39.105469-9.382812 57.335938l-14.761719 14.765625c-16.558594 16.554687-25.675781 38.570312-25.675781 61.984375v23.300781c-3.167969-4.722656-6.796875-9.148438-10.859375-13.183594l-14.597657-14.511718c1.53125-18.292969-1.683593-38.105469-9.363281-57.546876-8.328125-21.082031-21.777343-41.273437-38.894531-58.386718-17.113281-17.117188-37.304688-30.566406-58.390625-38.894532-20.671875-8.167968-41.765625-11.285156-61.007813-9.019531-3.445312.40625-6.164062 3.125-6.570312 6.574219-2.265625 19.238281.851562 40.335938 9.019531 61.007812 8.328125 21.082032 21.777344 41.273438 38.890625 58.386719 17.117188 17.117188 37.308594 30.566407 58.390625 38.894531 16.292969 6.4375 32.847657 9.738282 48.546875 9.738282 2.890625 0 5.746094-.121094 8.570313-.347656l14.828125 14.742187c13.625 13.542969 21.4375 32.324219 21.4375 51.53125v78.882813c0 66.015624 53.710937 119.726562 119.726562 119.726562 63.644532 0 115.839844-49.917969 119.511719-112.65625 31.65625-3.628906 56.328125-30.574219 56.328125-63.183594v-48.613281h8.53125c4.140625 0 7.5-3.359375 7.5-7.5s-3.359375-7.5-7.5-7.5zm-204.777344-213.308594c29.253906-29.253906 67.382813-45.785156 100.96875-44.125 1.660156 33.585938-14.871094 71.714844-44.125 100.96875-26.191406 26.191407-59.492187 42.171875-90.28125 44.042969l59.144532-59.144531c2.929687-2.929688 2.929687-7.675781 0-10.605469-2.929688-2.929688-7.679688-2.929688-10.605469 0l-59.144531 59.144531c1.871093-30.792969 17.851562-64.089843 44.042968-90.28125zm-240.484375 128.988281c-29.253906-29.253906-45.785156-67.378906-44.125-100.96875 33.589844-1.65625 71.714844 14.871094 100.96875 44.125 29.253907 29.253907 45.785157 67.382813 44.125 100.96875-33.585937 1.660157-71.714843-14.871093-100.96875-44.125zm0 0"/></svg>