<svg id="Layer_1" height="512" viewBox="0 0 128 128" width="512" xmlns="http://www.w3.org/2000/svg" xmlns:xlink="http://www.w3.org/1999/xlink" data-name="Layer 1"><linearGradient id="linear-gradient" gradientUnits="userSpaceOnUse" x1="89.949" x2="21.343" y1="81.022" y2="12.417"><stop offset="0" stop-color="#6f79e0"/><stop offset="1" stop-color="#28ebcf"/></linearGradient><path d="m66.334 82.417a1.75 1.75 0 0 0 -1.75 1.75v10.209a17.08 17.08 0 0 1 -34.16 0v-21.957h10.481a1.749 1.749 0 0 0 1.75-1.75v-6.608a7.11 7.11 0 0 1 7.1-7.1 1.75 1.75 0 0 0 1.75-1.75v-17.7a1.75 1.75 0 0 0 -1.75-1.75h-15.005a1.75 1.75 0 0 0 0 3.5h13.257v14.339a10.626 10.626 0 0 0 -8.707 8.711h-14.493a10.627 10.627 0 0 0 -8.707-8.711v-14.345h5.567a1.75 1.75 0 0 0 0-3.5h-2.51v-2.274h27.543a1.75 1.75 0 0 0 0-3.5h-.584v-12.29a4.647 4.647 0 1 0 -9.294 0v12.29h-15.331v-12.29a1.147 1.147 0 0 1 2.294 0v7.642a1.75 1.75 0 0 0 3.5 0v-7.642a4.647 4.647 0 0 0 -9.294 0v12.29h-.584a1.75 1.75 0 0 0 -1.75 1.75v4.024h-1.307a1.75 1.75 0 0 0 -1.75 1.75v17.7a1.75 1.75 0 0 0 1.75 1.75 7.109 7.109 0 0 1 7.1 7.1v6.608a1.749 1.749 0 0 0 1.75 1.75h3.723v21.963a20.58 20.58 0 0 0 41.16 0v-10.209a1.75 1.75 0 0 0 -1.749-1.75zm-26.013-64.726a1.147 1.147 0 1 1 2.294 0v12.29h-2.294zm-15.37 48.12h14.2v3.108h-14.2zm43.133 11.356v.833a1.75 1.75 0 0 1 -3.5 0v-.833a1.75 1.75 0 0 1 3.5 0zm46.872-53.9a5.135 5.135 0 0 1 -5.13 5.13h-31.421a10.333 10.333 0 0 0 -10.321 10.316v31.957a1.75 1.75 0 1 1 -3.5 0v-31.957a13.837 13.837 0 0 1 13.821-13.821h31.421a1.63 1.63 0 1 0 0-3.26 1.75 1.75 0 0 1 0-3.5 5.136 5.136 0 0 1 5.13 5.13zm-67.456 81.433a10.332 10.332 0 0 0 10.32-10.32v-55.667a20.6 20.6 0 0 1 20.585-20.581h24.928a1.75 1.75 0 0 1 0 3.5h-24.928a17.1 17.1 0 0 0 -17.081 17.081v55.663a13.82 13.82 0 0 1 -27.64 0v-17.5a1.75 1.75 0 0 1 3.5 0v17.5a10.332 10.332 0 0 0 10.316 10.324zm-19.25-68.945a1.75 1.75 0 0 1 0 3.5h-.667a1.75 1.75 0 1 1 0-3.5z" fill="url(#linear-gradient)"/></svg>